<svg xmlns="http://www.w3.org/2000/svg" viewBox="0 0 32 40" fill="none" x="0px" y="0px"><path d="M23.5 10C25.1569 10 26.5 8.65685 26.5 7C26.5 5.34315 25.1569 4 23.5 4C21.8431 4 20.5 5.34315 20.5 7C20.5 8.65685 21.8431 10 23.5 10Z" fill="black"/><path d="M20.0842 9.48671C20.0986 9.51168 20.1127 9.53677 20.1263 9.56198L22.303 13.331L25.5796 14.1927C26.3808 14.4034 26.8595 15.2237 26.6489 16.0249C26.4382 16.8261 25.618 17.3048 24.8168 17.0942L21.1365 16.1267C20.6203 15.991 20.1798 15.6546 19.9129 15.1924L18.9851 13.5854L13.9655 16.4835L14.6953 19.2073C14.7632 19.4605 14.7975 19.7216 14.7975 19.9838V25.0524C14.7975 25.8808 14.126 26.5524 13.2975 26.5524C12.7198 26.5524 12.2184 26.2258 11.9678 25.7471C11.8802 25.5798 11.8232 25.3939 11.8044 25.1968L11.7975 25.0524L11.797 19.984L10.3166 14.4568C9.86069 13.1271 10.3929 11.6179 11.656 10.8886L15.9861 8.38863C17.421 7.5602 19.2558 8.05183 20.0842 9.48671Z" fill="black"/><path d="M19.7653 17.2461L17.2014 15.768L15.1303 16.9655L15.4684 18.231L16.5718 18.8679L15.7974 19.641V23.886L20.0767 19.6061L20.175 19.4981C20.7571 18.7932 20.5772 17.7143 19.7653 17.2461Z" fill="black"/><path d="M10.6673 19.631C9.80497 18.9242 8.70202 18.5 7.5 18.5C4.73858 18.5 2.5 20.7386 2.5 23.5C2.5 26.2614 4.73858 28.5 7.5 28.5C9.06712 28.5 10.4658 27.779 11.3826 26.6507C11.1468 26.3659 10.9709 26.0256 10.8751 25.6477C10.165 26.7614 8.91874 27.5 7.5 27.5C5.29086 27.5 3.5 25.7091 3.5 23.5C3.5 21.2909 5.29086 19.5 7.5 19.5C8.86815 19.5 10.0759 20.1869 10.7971 21.2346L10.797 20.115L10.6673 19.631Z" fill="black"/><path fill-rule="evenodd" clip-rule="evenodd" d="M24.5 18.5C21.7386 18.5 19.5 20.7386 19.5 23.5C19.5 26.2614 21.7386 28.5 24.5 28.5C27.2614 28.5 29.5 26.2614 29.5 23.5C29.5 20.7386 27.2614 18.5 24.5 18.5ZM24.5 19.5C26.7091 19.5 28.5 21.2909 28.5 23.5C28.5 25.7091 26.7091 27.5 24.5 27.5C22.2909 27.5 20.5 25.7091 20.5 23.5C20.5 21.2909 22.2909 19.5 24.5 19.5Z" fill="black"/><text x="0" y="47" fill="#000000" font-size="5px" font-weight="bold" font-family="'Helvetica Neue', Helvetica, Arial-Unicode, Arial, Sans-serif">Created by SeungJun</text><text x="0" y="52" fill="#000000" font-size="5px" font-weight="bold" font-family="'Helvetica Neue', Helvetica, Arial-Unicode, Arial, Sans-serif">from the Noun Project</text></svg>