<svg xmlns="http://www.w3.org/2000/svg" viewBox="0 0 32 40" fill="none" x="0px" y="0px"><path d="M24.5819 10.9378C24.5819 12.5947 23.2388 13.9378 21.5819 13.9378C19.9251 13.9378 18.5819 12.5947 18.5819 10.9378C18.5819 9.28095 19.9251 7.93781 21.5819 7.93781C23.2388 7.93781 24.5819 9.28095 24.5819 10.9378Z" fill="black"/><path d="M16.3249 11.5201L20.4003 15.5959C19.8211 15.7166 19.391 15.9304 18.9948 16.1654L18.4722 16.4878C17.8192 16.8903 17.1166 17.2618 15.8196 17.2618C14.6955 17.2618 14.0179 16.9828 13.4321 16.6464L13.167 16.4878L12.8124 16.2673C12.5622 16.113 12.3047 15.9634 12.0093 15.8374L14.1988 13.647L12.9795 12.428L10.4811 14.9268C9.93202 15.476 9.06303 15.5104 8.47388 15.03L8.35987 14.9269C7.77409 14.3411 7.77409 13.3914 8.35987 12.8056L11.566 9.59952C12.347 8.81847 13.6133 8.81847 14.3944 9.59952L16.3199 11.5251L16.3249 11.5201Z" fill="black"/><path d="M21.4793 17.184C22.6768 17.184 23.3416 17.4012 24.338 17.9994L24.5742 18.1443C25.5632 18.7624 26.0705 18.9526 27.1391 18.9526C27.4153 18.9526 27.6391 19.1765 27.6391 19.4526C27.6391 19.7288 27.4153 19.9526 27.1391 19.9526C25.9416 19.9526 25.2768 19.7354 24.2805 19.1372L24.0442 18.9923C23.0553 18.3743 22.548 18.184 21.4793 18.184C20.4929 18.184 19.9848 18.3461 19.1346 18.8572L18.9144 18.9923C17.781 19.7007 17.1092 19.9526 15.8196 19.9526C14.6221 19.9526 13.9573 19.7354 12.9609 19.1372L12.7247 18.9923C11.7357 18.3743 11.2284 18.184 10.1598 18.184C9.17336 18.184 8.66521 18.3461 7.81503 18.8572L7.59488 18.9923C6.46142 19.7007 5.78962 19.9526 4.5 19.9526C4.22386 19.9526 4 19.7288 4 19.4526C4 19.1765 4.22386 18.9526 4.5 18.9526C5.48642 18.9526 5.99457 18.7905 6.84475 18.2795L7.0649 18.1443C8.19836 17.4359 8.87016 17.184 10.1598 17.184C11.3573 17.184 12.0221 17.4012 13.0184 17.9994L13.2547 18.1443C14.2436 18.7624 14.7509 18.9526 15.8196 18.9526C16.806 18.9526 17.3141 18.7905 18.1643 18.2795L18.3845 18.1443C19.5179 17.4359 20.1897 17.184 21.4793 17.184Z" fill="black"/><path d="M24.338 20.8647C23.3416 20.2665 22.6768 20.0493 21.4793 20.0493C20.1897 20.0493 19.5179 20.3012 18.3845 21.0095L18.1643 21.1447C17.3141 21.6558 16.806 21.8178 15.8196 21.8178C14.7509 21.8178 14.2436 21.6276 13.2547 21.0095L13.0184 20.8647C12.0221 20.2665 11.3573 20.0493 10.1598 20.0493C8.87016 20.0493 8.19836 20.3012 7.0649 21.0095L6.84475 21.1447C5.99457 21.6558 5.48642 21.8178 4.5 21.8178C4.22386 21.8178 4 22.0417 4 22.3178C4 22.594 4.22386 22.8178 4.5 22.8178C5.78962 22.8178 6.46142 22.5659 7.59488 21.8576L7.81503 21.7224C8.66521 21.2113 9.17336 21.0493 10.1598 21.0493C11.2284 21.0493 11.7357 21.2395 12.7247 21.8576L12.9609 22.0024C13.9573 22.6006 14.6221 22.8178 15.8196 22.8178C17.1092 22.8178 17.781 22.5659 18.9144 21.8576L19.1346 21.7224C19.9848 21.2113 20.4929 21.0493 21.4793 21.0493C22.548 21.0493 23.0553 21.2395 24.0442 21.8576L24.2805 22.0024C25.2768 22.6006 25.9416 22.8178 27.1391 22.8178C27.4153 22.8178 27.6391 22.594 27.6391 22.3178C27.6391 22.0417 27.4153 21.8178 27.1391 21.8178C26.0705 21.8178 25.5632 21.6276 24.5742 21.0095L24.338 20.8647Z" fill="black"/><text x="0" y="47" fill="#000000" font-size="5px" font-weight="bold" font-family="'Helvetica Neue', Helvetica, Arial-Unicode, Arial, Sans-serif">Created by SeungJun</text><text x="0" y="52" fill="#000000" font-size="5px" font-weight="bold" font-family="'Helvetica Neue', Helvetica, Arial-Unicode, Arial, Sans-serif">from the Noun Project</text></svg>